<svg width="236" height="55" viewBox="0 0 236 55" fill="none" xmlns="http://www.w3.org/2000/svg">
<path d="M88.483 28.4966H85.8154V10.1655H87.9876L94.0468 19.0844L100.106 10.1655H102.202V28.4966H99.5725V15.5927L94.7709 22.7278H93.2847L88.483 15.5927V28.4966Z" fill="#1D1D1B"/>
<path d="M117.865 23.8664H110.395L108.604 28.4966H105.746L113.139 9.8999H115.083L122.476 28.4966H119.618L117.865 23.8664ZM111.386 21.3616H116.912L114.168 14.1126L111.386 21.3616Z" fill="#1D1D1B"/>
<path d="M136.919 28.4966V15.6686L128.039 28.4966H125.943V10.1655H128.573V23.0694L137.528 10.1655H139.586V28.4966H136.919Z" fill="#1D1D1B"/>
<path d="M146.56 12.7083C148.237 11.0004 150.599 9.93774 153.191 9.93774C155.782 9.93774 158.145 11.0004 159.86 12.7083C161.498 14.4162 162.604 16.7313 162.604 19.35C162.604 21.9308 161.537 24.2838 159.86 25.9917C158.145 27.7375 155.82 28.7622 153.191 28.7622C150.599 28.7622 148.237 27.6995 146.56 25.9917C144.921 24.2838 143.816 21.9687 143.816 19.35C143.816 16.7313 144.883 14.4162 146.56 12.7083ZM157.954 14.6059C156.735 13.3914 155.02 12.6324 153.191 12.6324C151.362 12.6324 149.685 13.3914 148.465 14.6059C147.246 15.8204 146.484 17.4903 146.484 19.35C146.484 21.2097 147.246 22.8796 148.465 24.094C149.685 25.3085 151.362 26.0676 153.191 26.0676C155.02 26.0676 156.735 25.3085 157.954 24.094C159.136 22.8796 159.898 21.2476 159.898 19.35C159.898 17.4524 159.136 15.7824 157.954 14.6059Z" fill="#1D1D1B"/>
<path d="M167.901 28.4966H165.004L172.397 9.8999H174.341L181.734 28.4966H178.838L173.388 14.5301L167.901 28.4966Z" fill="#1D1D1B"/>
<path d="M196.368 28.4966V15.6686L187.488 28.4966H185.392V10.1655H188.022V23.0694L196.977 10.1655H199.035V28.4966H196.368Z" fill="#1D1D1B"/>
<path d="M206.009 10.1655V28.4966H203.341V10.1655H206.009ZM206.504 18.6669L213.021 10.1655H216.298L209.286 19.2741L217.06 28.4966H213.592L206.581 19.9952V18.6669H206.504Z" fill="#1D1D1B"/>
<path d="M231.389 23.8664H223.92L222.129 28.4966H219.271L226.664 9.8999H228.607L236 28.4966H233.142L231.389 23.8664ZM224.911 21.3616H230.436L227.692 14.1126L224.911 21.3616Z" fill="#1D1D1B"/>
<path d="M130.669 16.4656V10.1655H135.013L130.669 16.4656Z" fill="#E52329"/>
<path d="M92.5032 48.4L88.6893 43.7239L91.9485 39.325H90.8736L87.9149 43.2954H86.9788V39.325H86.1235V48.4H86.9788V44.1777H87.9149L91.3821 48.4H92.5032Z" fill="black"/>
<path d="M99.0628 40.2073V39.325H93.8619V48.4H99.0628V47.5178H94.7056V44.2407H98.3693V43.3584H94.7056V40.2073H99.0628Z" fill="black"/>
<path d="M106.248 40.0813C105.809 39.6275 105.208 39.325 104.445 39.325H101.232V48.4H102.076V44.9465H104.445C105.185 44.9465 105.89 44.644 106.363 44.0768C106.791 43.5727 107.057 42.8794 107.057 42.1358C107.057 41.3417 106.779 40.6359 106.248 40.0813ZM105.774 43.3836C105.45 43.8121 104.942 44.0642 104.456 44.0642H102.076V40.2199H104.456C104.93 40.2199 105.381 40.409 105.682 40.7493C106.005 41.1274 106.167 41.6316 106.179 42.1358C106.19 42.5895 106.04 43.0433 105.774 43.3836Z" fill="black"/>
<path d="M114.162 48.4H115.052L112.185 39.325H111.053L108.187 48.4H109.077L109.77 46.1943H113.457L114.162 48.4ZM110.047 45.3246L111.608 40.3712L113.179 45.3246H110.047Z" fill="black"/>
<path d="M124.745 39.325H123.948L120.7 46.9506L117.418 39.325H116.644V48.4H117.453V41.3921L120.423 48.4H120.966L123.925 41.3921V48.3874H124.745V39.325Z" fill="black"/>
<path d="M132.35 39.325L127.773 46.7615V39.325H126.918V48.4H127.773L132.35 40.951V48.4H133.205V39.325H132.35Z" fill="black"/>
<path d="M140.397 39.325V43.6735C140.016 44.039 139.415 44.3289 138.421 44.3289C137.82 44.3289 137.196 44.1272 136.803 43.5727C136.294 42.892 136.248 42.1988 136.248 41.1527V39.325H135.393V41.2787C135.393 42.4887 135.439 43.3332 136.086 44.1903C136.629 44.9087 137.45 45.2364 138.34 45.2364C139.276 45.2364 139.923 44.9465 140.397 44.581V48.4H141.252V39.325H140.397Z" fill="black"/>
<path d="M148.624 40.2073V39.325H143.424V48.4H148.624V47.5178H144.267V44.2407H147.931V43.3584H144.267V40.2073H148.624Z" fill="black"/>
<path d="M156.988 45.4507C156.884 45.854 156.711 46.2321 156.491 46.5724C155.971 47.3161 155.162 47.7068 154.284 47.6942C153.383 47.6816 152.562 47.3413 152.042 46.585C151.464 45.7532 151.348 44.8331 151.348 43.8625C151.337 42.892 151.51 41.9089 152.042 41.1527C152.573 40.3964 153.406 40.0183 154.284 40.0309C155.174 40.0435 155.948 40.3838 156.491 41.1653C156.734 41.5182 156.919 41.9467 157.012 42.4005L157.878 42.2618C157.728 41.5686 157.462 40.9258 156.977 40.3712C156.307 39.5393 155.324 39.136 154.249 39.136C153.082 39.136 152.042 39.6023 151.348 40.5855C150.678 41.5182 150.458 42.6904 150.447 43.8625C150.435 44.9717 150.701 46.1943 151.348 47.1396C152.03 48.1228 153.07 48.5891 154.249 48.5891C155.324 48.5891 156.295 48.2236 156.977 47.3665C157.416 46.8623 157.67 46.2952 157.821 45.6902L156.988 45.4507Z" fill="black"/>
<path d="M166.049 48.4L162.235 43.7239L165.495 39.325H164.42L161.461 43.2954H160.525V39.325H159.67V48.4H160.525V44.1777H161.461L164.928 48.4H166.049Z" fill="black"/>
<path d="M172.805 48.4H173.695L170.829 39.325H169.696L166.83 48.4H167.72L168.414 46.1943H172.1L172.805 48.4ZM168.691 45.3246L170.251 40.3712L171.823 45.3246H168.691Z" fill="black"/>
<path d="M180.731 39.325H177.518C176.755 39.325 176.154 39.6275 175.715 40.0813C175.183 40.6359 174.906 41.3417 174.906 42.1358C174.906 42.8794 175.172 43.5727 175.599 44.0768C175.819 44.3289 176.073 44.5432 176.374 44.6818L174.71 48.4H175.692L177.229 44.9339C177.333 44.9465 177.426 44.9465 177.518 44.9465H179.887V48.4H180.731V39.325ZM177.506 44.0642C177.021 44.0642 176.512 43.8121 176.189 43.3836C175.923 43.0433 175.773 42.5895 175.784 42.1358C175.796 41.6316 175.958 41.1274 176.281 40.7493C176.582 40.409 177.033 40.2199 177.506 40.2199H179.887V44.0642H177.506Z" fill="black"/>
<path d="M192.623 39.325H185.769V48.4H186.613V40.2073H191.779V48.4H192.623V39.325Z" fill="black"/>
<path d="M201.304 39.325H196.288L195.652 45.186C195.49 46.6355 195.271 47.5304 194.219 47.543V48.4C195.86 48.4757 196.265 47.064 196.438 45.3498L196.993 40.2073H200.449V48.4H201.304V39.325Z" fill="black"/>
<path d="M208.91 39.325L204.333 46.7615V39.325H203.478V48.4H204.333L208.91 40.951V48.4H209.765V39.325H208.91Z" fill="black"/>
<path d="M217.928 39.325H211.26V40.2073H214.172V48.4H215.016V40.2073H217.928V39.325Z" fill="black"/>
<path d="M225.79 48.4L221.976 43.7239L225.235 39.325H224.16L221.201 43.2954H220.265V39.325H219.41V48.4H220.265V44.1777H221.201L224.669 48.4H225.79Z" fill="black"/>
<path d="M232.546 48.4H233.436L230.569 39.325H229.437L226.57 48.4H227.46L228.154 46.1943H231.841L232.546 48.4ZM228.431 45.3246L229.991 40.3712L231.563 45.3246H228.431Z" fill="black"/>
<g clip-path="url(#clip0)">
<path d="M70.8101 0C70.8101 0 41.4787 12.9845 35.46 47.0923C48.1175 25.4506 64.0202 27.527 64.0202 27.527C64.0202 27.527 71.8903 18.6978 70.8101 0Z" fill="#ED6842"/>
<path d="M42.0234 38.0706L52.3857 54.9717L64.0569 27.5089C64.0569 27.5089 53.1866 25.969 42.0234 38.0706Z" fill="#FAC18A"/>
<path d="M42.021 38.0706L54.7587 49.2764L52.3237 55L42.021 38.0706Z" fill="#F5A057"/>
<path d="M70.81 0.0462738C70.6063 0.136105 55.5893 6.86578 44.9021 23.1895L44.5566 23.7233L44.2179 24.2597L43.8837 24.7987V24.8141L43.5565 25.3557V25.3736L43.2338 25.9203L43.2224 25.9409L42.9043 26.4901L42.8905 26.5158L42.5793 27.0702L42.5633 27.0984L42.2223 27.6682L42.204 27.699L41.9042 28.2611L41.8859 28.2944L41.5907 28.8591L41.5701 28.8976L41.2817 29.4648L41.2611 29.5059L40.9751 30.0757L40.9545 30.1193C40.8614 30.311 40.7691 30.5035 40.6776 30.6968L40.6547 30.743C40.5631 30.9363 40.4724 31.1306 40.3824 31.3256L40.3595 31.3744C40.2695 31.5694 40.1802 31.7654 40.0917 31.9621L40.0688 32.0109C39.9804 32.2077 39.8934 32.4053 39.808 32.6038L39.7851 32.6577C39.6981 32.8562 39.6127 33.0564 39.5288 33.2583L39.5059 33.3096C39.422 33.5115 39.3381 33.7134 39.2541 33.9153L39.2313 33.9692C39.1473 34.1729 39.065 34.3782 38.9841 34.5852L38.9635 34.6366C38.8826 34.8436 38.8018 35.0515 38.7209 35.2602L38.7026 35.309C38.6233 35.5195 38.547 35.7308 38.4738 35.943L38.4555 35.9917C38.3777 36.2039 38.3014 36.4178 38.2266 36.6334L38.2106 36.6796C38.1343 36.8969 38.058 37.115 37.9817 37.3341L37.968 37.3751C37.8933 37.5959 37.817 37.8183 37.7392 38.0425L37.7277 38.0784C37.653 38.3042 37.5767 38.5318 37.4989 38.7611V38.7893C37.4256 39.0203 37.3539 39.253 37.2838 39.4875V39.508C37.2121 39.7475 37.1411 39.9879 37.0709 40.2292C36.4157 42.4852 35.8808 44.783 35.469 47.1103C35.469 47.1103 35.9015 46.3095 36.7895 44.9569C38.3524 42.5034 40.1045 40.2086 42.0255 38.0989C44.0325 27.8889 54.0789 8.39804 70.8146 0.0385742L70.81 0.0462738Z" fill="#FBC588"/>
<path d="M35.4601 47.0924C41.4308 13.2721 70.3183 0.220848 70.8057 0.00268555C52.3217 1.63762 41.4697 13.0719 35.4556 22.9842V47.0847L35.4601 47.0924Z" fill="#E52329"/>
<path d="M40.3001 31.4822L35.46 23.0123C35.46 23.0123 35.4737 45.6909 35.46 47.0769C36.4164 41.6508 38.0456 36.4016 40.3001 31.4822Z" fill="#B71918"/>
<path d="M0.103503 0C0.103503 0 29.4349 12.9845 35.4559 47.0923C22.7984 25.4506 6.89571 27.527 6.89571 27.527C6.89571 27.527 -0.97666 18.6978 0.103503 0Z" fill="#ED6842"/>
<path d="M28.8898 38.0706L18.5299 54.9717L6.85864 27.5089C6.85864 27.5089 17.7358 25.969 28.8898 38.0706Z" fill="#E52329"/>
<path d="M28.8899 38.0706L16.1545 49.2764L18.5872 55L28.8899 38.0706Z" fill="#B71918"/>
<path d="M0.104004 0.0466309C0.307679 0.136462 15.3247 6.86613 26.0119 23.1898L26.3575 23.7237L26.6961 24.2601L27.0303 24.7991V24.8145L27.3575 25.356V25.374L27.6802 25.9207L27.6916 25.9412L28.0097 26.4905L28.0235 26.5161L28.3347 27.0705L28.3507 27.0988L28.6574 27.6557L28.6757 27.6865L28.9755 28.2486L28.9938 28.282L29.289 28.8466L29.3096 28.8851L29.5979 29.4524L29.6185 29.4934L29.9023 30.0658L29.9229 30.1094L30.1998 30.6869L30.2227 30.7331C30.3142 30.9264 30.405 31.1206 30.495 31.3157L30.5179 31.3645C30.6079 31.5595 30.6972 31.7555 30.7857 31.9522L30.8085 32.001C30.897 32.1978 30.984 32.3954 31.0694 32.5939L31.0923 32.6478C31.1793 32.8463 31.2647 33.0465 31.3486 33.2484L31.3715 33.2997C31.4554 33.5016 31.5393 33.7035 31.6232 33.9054L31.6461 33.9593C31.73 34.1629 31.8124 34.3683 31.8933 34.5753L31.9139 34.6267C31.9947 34.8337 32.0756 35.0416 32.1565 35.2503L32.1748 35.2991C32.2541 35.5096 32.3304 35.7209 32.4036 35.9331L32.4219 35.9818C32.4997 36.194 32.576 36.4079 32.6508 36.6235L32.6668 36.6697C32.7431 36.887 32.8193 37.1051 32.8956 37.3242L32.9094 37.3652C32.9841 37.586 33.0604 37.8084 33.1382 38.0325L33.1497 38.0685C33.2244 38.2943 33.3007 38.5219 33.3785 38.7512V38.7794C33.4517 39.0104 33.5234 39.2431 33.5936 39.4776V39.4981C33.6653 39.7376 33.7363 39.978 33.8064 40.2193C34.4617 42.4753 34.9966 44.7731 35.4084 47.1004C35.4084 47.1004 34.9759 46.2996 34.0879 44.947C32.525 42.4935 30.7729 40.1986 28.8519 38.089C26.8907 27.897 16.8397 8.4061 0.104004 0.0466309Z" fill="#F5A057"/>
<path d="M35.4565 47.0924C29.4858 13.2721 0.598348 0.220848 0.115479 0.00268555C18.5995 1.63762 29.4515 13.0719 35.4656 22.9842V47.0847L35.4565 47.0924Z" fill="#B71918"/>
<path d="M30.613 31.4822L35.4532 23.0123C35.4532 23.0123 35.4394 45.6909 35.4532 47.0769C34.4967 41.6508 32.8675 36.4016 30.613 31.4822Z" fill="#E52329"/>
</g>
<defs>
<clipPath id="clip0">
<rect width="70.9108" height="55" fill="white"/>
</clipPath>
</defs>
</svg>
