 <svg width="0" height="0" class="hidden">
    <symbol stroke='none' xmlns="http://www.w3.org/2000/svg" viewBox="0 0 5.625 1.275" id="icon1">
      <path d="M0 0v1.275h5.625V0z"></path>
    </symbol>
    <symbol stroke='none' viewBox="0 0 9 9" xmlns="http://www.w3.org/2000/svg" id="icon2">
      <path d="M9 3.862H5.138V0H3.862v3.862H0v1.276h3.862V9h1.276V5.138H9V3.862z"></path>
    </symbol>
    <symbol stroke='none' viewBox="0 0 18 18" xmlns="http://www.w3.org/2000/svg" id="icon3">
      <path d="M16.92 9.208h-1.812v-6.89c0-.447-.123-.882-.357-1.258A2.21 2.21 0 0 0 13.072.01a2.185 2.185 0 0 0-1.832.725l-.533.592c-1.022.087-1.829.976-1.829 2.059 0 .206.161.373.36.373h3.266c.199 0 .36-.167.36-.373 0-.882-.536-1.634-1.287-1.93l.19-.21a1.477 1.477 0 0 1 1.24-.493 1.5 1.5 0 0 1 1.14.712c.158.255.242.55.242.853v6.89H1.08c-.596 0-1.08.503-1.08 1.12v.768c0 .206.161.373.36.373h.628l.33 1.167a4.72 4.72 0 0 0 2.377 2.913 3.742 3.742 0 0 0-.634 2.078c0 .206.162.373.36.373.2 0 .36-.167.36-.373a3 3 0 0 1 .6-1.79l.002-.005c.423.134.868.21 1.325.21h6.502a4.45 4.45 0 0 0 1.397-.228l.031.05a2.97 2.97 0 0 1 .58 1.763c0 .206.162.373.36.373.2 0 .36-.167.36-.373 0-.76-.236-1.508-.649-2.1a4.834 4.834 0 0 0 2.415-2.973l.307-1.085h.629c.199 0 .36-.167.36-.373v-.768c0-.617-.484-1.12-1.08-1.12zm-4.828-6.196H9.65c.155-.546.644-.947 1.22-.947.578 0 1.066.4 1.222.947zm3.922 9.33c-.493 1.739-2.058 2.953-3.804 2.953H5.708c-1.698 0-3.22-1.18-3.698-2.87l-.271-.956H16.26l-.247.874zm1.266-1.62H.72v-.393c0-.207.161-.374.36-.374h15.84c.199 0 .36.167.36.373v.395z"></path>
      <path d="M8.929 7.963c0 .206.161.374.36.374.199 0 .36-.168.36-.374V7.59a.367.367 0 0 0-.36-.373.367.367 0 0 0-.36.373v.373zm0-1.493c0 .206.161.373.36.373.199 0 .36-.167.36-.373v-.374a.367.367 0 0 0-.36-.373.367.367 0 0 0-.36.373v.374zm.36-1.12c.199 0 .36-.167.36-.374v-.373a.367.367 0 0 0-.36-.374.367.367 0 0 0-.36.374v.373c0 .206.161.374.36.374zm2.702 2.613c0 .206.161.374.36.374.199 0 .36-.168.36-.374V7.59a.367.367 0 0 0-.36-.373.367.367 0 0 0-.36.373v.373zm.36-2.613c.199 0 .36-.167.36-.374v-.373a.367.367 0 0 0-.36-.374.367.367 0 0 0-.36.374v.373c0 .206.16.374.36.374zm-.36 1.12c0 .206.161.373.36.373.199 0 .36-.167.36-.373v-.374a.367.367 0 0 0-.36-.373.367.367 0 0 0-.36.373v.374zm-1.222-1.12c.199 0 .36-.167.36-.374v-.373a.367.367 0 0 0-.36-.374.367.367 0 0 0-.36.374v.373c0 .206.16.374.36.374zm-.36 2.613c0 .206.161.374.36.374.199 0 .36-.168.36-.374V7.59a.367.367 0 0 0-.36-.373.367.367 0 0 0-.36.373v.373zm0-1.493c0 .206.161.373.36.373.199 0 .36-.167.36-.373v-.374a.367.367 0 0 0-.36-.373.367.367 0 0 0-.36.373v.374z"></path>
    </symbol>
    <symbol stroke='none' viewBox="0 0 63 43" xmlns="http://www.w3.org/2000/svg" id="icon4">
      <path d="M31.098 4.981L.691 14.203v28.114h13.821v-26.26h33.172v26.26h13.82V14.203L31.099 4.981z"></path>
      <path d="M62.196 9.567L31.179 0 0 9.617v2.627l31.179-9.608 31.017 9.558V9.567zM35.403 29.668h-8.264c-.76 0-1.382-.622-1.382-1.383v-7.809c0-.76.622-1.382 1.382-1.382h8.265c.76 0 1.382.622 1.382 1.382v7.81c0 .76-.623 1.381-1.383 1.381zm-6.624 12.461h-8.264c-.76 0-1.382-.622-1.382-1.382v-7.81c0-.76.622-1.381 1.382-1.381h8.264c.76 0 1.382.622 1.382 1.382v7.809c0 .76-.622 1.382-1.383 1.382zm13.248 0h-8.263c-.76 0-1.383-.622-1.383-1.382v-7.81c0-.76.622-1.381 1.383-1.381h8.264c.76 0 1.382.622 1.382 1.382v7.809c0 .76-.622 1.382-1.383 1.382z"></path>
    </symbol>
    <symbol stroke='none' viewBox="0 0 56 50" xmlns="http://www.w3.org/2000/svg" id="icon5">
      <path fill-rule="evenodd" clip-rule="evenodd" d="M26.656 35.199a.58.58 0 0 0 .544.424c.06 0 .12 0 .181-.06l24.837-8.3a.607.607 0 0 0 .362-.788L44 .425a.62.62 0 0 0-.303-.364C43.577 0 43.395 0 43.214 0L18.377 8.3a.62.62 0 0 0-.363.303c-.06.121-.06.303-.06.485l8.702 26.11zm8.08-24.609l5.78 2.911.002.001c.405.203.644.567.751.906.11.347.114.753-.04 1.135l-.014.036-.017.033a1.51 1.51 0 0 1-.909.75 1.699 1.699 0 0 1-1.133-.04l-.038-.014-2.556-1.293 2.203 6.632v.001c.14.419.117.858-.076 1.243a1.618 1.618 0 0 1-.726.718c-.29.197-.583.195-.668.194h-.01a1.57 1.57 0 0 1-1.49-1.126l-2.205-6.64-1.29 2.531a1.68 1.68 0 0 1-.567.655 1.545 1.545 0 0 1-.863.254h-.006c-.037 0-.153 0-.28-.02a1.19 1.19 0 0 1-.493-.198c-.698-.418-.91-1.358-.503-2.08l2.907-5.854c.052-.166.135-.283.177-.339.067-.089.144-.165.173-.194l.006-.006.006-.006c.029-.029.106-.106.195-.172a1.08 1.08 0 0 1 .646-.223h.294c.093-.003.43-.014.745.205zM.566 4.185C.72 3.304 1.579 2.93 2.234 3.062l.006.001 6.938 1.493a.871.871 0 0 1 .293.06h.132l.2.199a.848.848 0 0 1 .3.337.859.859 0 0 1 .186.362l10.142 30.609c.122.369.103.755-.067 1.093-.143.287-.374.5-.637.632a1.02 1.02 0 0 1-.589.171h-.01a1.38 1.38 0 0 1-1.308-.99L7.873 7.184 1.68 5.836C.815 5.68.443 4.837.566 4.185zm20.631 34.282c1.469-.488 3.127-.345 4.507.346l.014.007.014.008a6.425 6.425 0 0 1 2.943 3.36l.006.015.005.016c.492 1.477.343 3.072-.336 4.502-.693 1.455-1.883 2.51-3.416 3-.642.213-1.27.28-1.869.28a5.892 5.892 0 0 1-2.631-.623c-1.452-.693-2.503-1.883-2.991-3.414-.49-1.476-.34-3.07.338-4.497.693-1.455 1.883-2.51 3.416-3zm.85 2.663c-.825.297-1.43.82-1.81 1.578-.397.797-.479 1.593-.2 2.382.295.84.821 1.453 1.585 1.835.796.398 1.59.48 2.378.201.838-.296 1.451-.822 1.833-1.586.38-.76.436-1.566.195-2.402-.298-.829-.821-1.436-1.579-1.815l-.015-.008-.015-.008c-.398-.221-.858-.32-1.354-.32-.335 0-.674.047-1.017.143zm33.149-8.874c.33.167.56.45.683.763l.009.021.007.022c.263.8-.163 1.518-.82 1.784l-.023.01-21.433 7.176c-.239.142-.468.14-.54.14h-.008a1.38 1.38 0 0 1-1.31-1.003c-.245-.788.179-1.494.829-1.757l.022-.01 21.485-7.213a1.41 1.41 0 0 1 1.099.067zM24.823 44.169c0 1.015-.787 1.837-1.757 1.837-.97 0-1.758-.822-1.758-1.837 0-1.014.787-1.837 1.758-1.837.97 0 1.757.823 1.757 1.837z"></path>
    </symbol>
    <symbol stroke='none' viewBox="0 0 36 30" xmlns="http://www.w3.org/2000/svg" id="icon6">
      <path d="M13 0l-2.5 5h-7A3.492 3.492 0 0 0 0 8.5v18C0 28.439 1.561 30 3.5 30h29c1.939 0 3.5-1.561 3.5-3.5v-18C36 6.561 34.439 5 32.5 5h-7L23 0H13zm5 9c4.677 0 8.5 3.823 8.5 8.5S22.677 26 18 26s-8.5-3.823-8.5-8.5S13.323 9 18 9zm0 3a5.478 5.478 0 0 0-5.5 5.5c0 3.055 2.445 5.5 5.5 5.5s5.5-2.445 5.5-5.5S21.055 12 18 12z"></path>
    </symbol>
    <symbol xmlns="http://www.w3.org/2000/svg" fill='none' viewBox="0 0 18.011 18.015" id="icon7">
      <path stroke-width=".5" d="M.259.259h17.492V17.75H.259zm17.577 2.523L2.29 17.835M17.836 7.362L7.2 17.834m10.636-5.399l-5.564 5.4M15.503.177L.177 15.503M10.512.184L.183 10.512M5.515.184L.184 5.515M3.6 6.872L1.225 4.454m7.601 2.394L6.16 4.183m9.39.937l-2.46-2.503m.401 8.895L11.158 9.18m-6.086 6.2l-2.454-2.454m10.935 3.856l-2.589-2.546"></path>
    </symbol>
    <symbol viewBox="0 0 20 20" xmlns="http://www.w3.org/2000/svg" id="icon8">
      <path stroke='none' fill-rule="evenodd" clip-rule="evenodd" d="M5.231 6.501s1.123-1.31 1.685-1.273c.561.075 1.31 1.31 1.535 2.022.224.711-.262 1.198-.45 1.46-.15.225-.299.412-.299.412.45 1.347 2.284 3.182 3.631 3.631 0 0 .188-.112.45-.3.224-.187.71-.636 1.46-.411.71.187 1.946.973 1.984 1.497.037.562-1.273 1.685-1.273 1.685C9.536 15.41 5.08 10.919 5.23 6.5z"></path>
      <path stroke='none' d="M10 0C4.485 0 0 4.485 0 10s4.485 10 10 10 10-4.485 10-10S15.515 0 10 0zm0 1.364A8.626 8.626 0 0 1 18.636 10 8.626 8.626 0 0 1 10 18.636 8.626 8.626 0 0 1 1.364 10 8.626 8.626 0 0 1 10 1.364z"></path>
    </symbol>
    <symbol xmlns="http://www.w3.org/2000/svg" viewBox="0 0 7.364 11.5" id="icon9">
      <path stroke='none' d="M3.328 11.354a.5.5 0 0 0 .708 0l3.181-3.182a.5.5 0 1 0-.707-.708l-2.828 2.829L.854 7.465a.5.5 0 1 0-.708.707zM3.182 0v11h1V0z"></path>
    </symbol>
    <symbol viewBox="0 0 18 18" xmlns="http://www.w3.org/2000/svg" stroke='none' id="icon10">
      <path d="M17.837 16.983l-6.645-6.645-.845.844 6.646 6.646.844-.845z"></path>
      <path d="M18 18h-6.133v-1.195h4.938v-4.938H18V18zM7.654 6.817L1.008.17l-.845.845L6.81 7.661l.845-.844z"></path>
      <path d="M1.195 6.133H0V0h6.133v1.195H1.195v4.938z"></path>
    </symbol>
    <symbol viewBox="0 0 18 18" fill="none" xmlns="http://www.w3.org/2000/svg" id="icon11">
      <path stroke-width=".5" d="M.25.25h4.076v5.613H.25zm4.271 0h4.381v5.613H4.521zm4.576 0h4.381v5.613H9.097zM.25 9.419h17.5v8.33H.25z"></path>
      <path stroke-width=".5" d="M.25 9.419h5.602v8.33H.25zm11.898.001h5.602v8.33h-5.602zm-6.101 0h5.907v1.877H6.047zm1.22 3.395h3.466v1.877H7.267zM13.673.25h4.076v5.613h-4.076z"></path>
      <path transform="matrix(0 1 -.99998 -.0066 3.356 2.377)" stroke-width=".5" d="M0-.25h1.358"></path>
      <path stroke-width=".5" d="M7.877 2.377v1.358m2.136-1.358v1.358m4.576-1.358v1.358"></path>
    </symbol>
    <symbol xmlns="http://www.w3.org/2000/svg" viewBox="0 0 18.5 18.433" fill="none" id="icon12">
      <path d="M.25 8.94v9.243h18V8.94L9.334.346z" stroke-width=".5"></path>
      <path stroke-width=".5" d="M7.565 4.812h2.864V7.88H7.565zm-4.71 6.162H9.42v4.365H2.855zm8.747 0h3.201v7.122h-3.2z"></path>
    </symbol>
    <symbol viewBox="0 0 60 52" xmlns="http://www.w3.org/2000/svg" id="icon13">
      <g>
        <path fill='none' fill-rule="evenodd" clip-rule="evenodd" d="M1.653 16.013C1.653 7.187 14.293.027 29.907 0h.2c15.606.033 28.24 7.187 28.24 16.013 0 1.934-.6 3.78-1.714 5.494C51.64 16.087 41.587 12.38 30 12.38S8.36 16.087 3.367 21.507c-1.114-1.714-1.714-3.56-1.714-5.494zm56.287 7.114l-.013-.014C54.42 28.147 46.753 32 37.32 33.333v-5.68L16.287 39.827 37.32 52v-6.287C50.347 43.873 60 37.22 60 29.3V17.747h-.033c-.16 1.88-.867 3.68-2.027 5.353v.027zM12.787 43.16C5.053 40.1 0 35.033 0 29.3V17.747h.033c.16 1.88.867 3.68 2.027 5.353v.027l.013-.014C4.24 26.227 8 28.887 12.787 30.78v12.38z"></path>
        <path stroke='none' d="M26.47 21.756a2.225 2.225 0 0 0-1.157-.807l1.42-1.323v-1.293h-4.376v1.245h2.616l-1.692 1.565.593 1.04c.165-.097.35-.155.544-.155.292 0 .564.087.778.301.214.214.32.506.32.797a1.099 1.099 0 0 1-1.875.768 1.052 1.052 0 0 1-.273-.486l-1.283.34c.117.409.34.778.642 1.06a2.404 2.404 0 0 0 1.691.652 2.394 2.394 0 0 0 1.692-.642c.457-.428.73-1.06.749-1.692a2.37 2.37 0 0 0-.39-1.37zm5.774-2.898c-.515-.476-1.137-.67-1.818-.66-.749-.02-1.478.223-2.003.845-.486.574-.593 1.147-.593 1.925v1.72c0 .866.117 1.518.759 2.12a2.338 2.338 0 0 0 1.681.652 2.378 2.378 0 0 0 1.692-.642c.457-.428.739-1.06.749-1.692.02-.69-.204-1.254-.71-1.72a2.372 2.372 0 0 0-1.526-.564c-.467 0-.924.155-1.293.437v-.31c0-.293-.01-.526.097-.769.175-.457.651-.768 1.147-.768.32 0 .642.136.875.37l.943-.944zm-1.196 5.036a1.06 1.06 0 0 1-.777.321 1.058 1.058 0 0 1-.769-.32 1.081 1.081 0 0 1-.32-.769c0-.291.116-.573.32-.777.205-.205.486-.321.778-.321a1.098 1.098 0 0 1 1.09 1.098c0 .292-.118.574-.322.768zm5.132 1.576c-.739 0-1.507-.263-2.002-.846-.496-.623-.593-1.138-.593-1.935v-1.72c0-.779.077-1.294.593-1.936.457-.544 1.215-.865 2.002-.846.74-.019 1.498.253 2.003.846.506.593.593 1.138.593 1.935v1.72c0 .76-.087 1.333-.593 1.936-.496.573-1.215.845-2.003.845zm0-6.038c-.437-.01-.865.253-1.079.632-.155.262-.165.535-.165.904v1.72c0 .331-.01.662.194.963.234.35.632.584 1.05.574.428.01.837-.224 1.06-.583.194-.282.185-.535.185-.953v-1.72c0-.35.02-.565-.146-.895a1.255 1.255 0 0 0-1.099-.642z"></path>
      </g>
    </symbol>
    <symbol viewBox="0 0 18 20" stroke="none" xmlns="http://www.w3.org/2000/svg" id="icon14">
      <path d="M.75 3.71h2.357a2.952 2.952 0 0 0 1.06 1.605 3.005 3.005 0 0 0 3.666 0 2.952 2.952 0 0 0 1.06-1.604h8.357c.199 0 .39-.078.53-.217a.738.738 0 0 0 0-1.05.754.754 0 0 0-.53-.217H8.893A2.952 2.952 0 0 0 7.833.622a3.005 3.005 0 0 0-3.666 0 2.952 2.952 0 0 0-1.06 1.605H.75a.754.754 0 0 0-.53.217.738.738 0 0 0 0 1.05c.14.139.331.217.53.217zM6 1.485c.297 0 .587.087.833.25.247.164.44.396.553.667a1.47 1.47 0 0 1-.325 1.617 1.505 1.505 0 0 1-1.635.322 1.497 1.497 0 0 1-.673-.547 1.473 1.473 0 0 1 .186-1.874A1.508 1.508 0 0 1 6 1.484zm11.25 7.742h-2.357a2.952 2.952 0 0 0-1.06-1.605 3.005 3.005 0 0 0-3.666 0 2.952 2.952 0 0 0-1.06 1.605H.75a.754.754 0 0 0-.53.217.738.738 0 0 0 0 1.05c.14.139.331.217.53.217h8.357a2.952 2.952 0 0 0 1.06 1.604 3.005 3.005 0 0 0 3.666 0 2.952 2.952 0 0 0 1.06-1.604h2.357a.75.75 0 0 0 .53-.218.738.738 0 0 0 0-1.049.754.754 0 0 0-.53-.217zM12 11.453c-.297 0-.587-.087-.833-.25a1.488 1.488 0 0 1-.553-.666 1.47 1.47 0 0 1 .325-1.618 1.505 1.505 0 0 1 1.635-.322c.274.113.508.303.673.547a1.473 1.473 0 0 1-.186 1.874 1.508 1.508 0 0 1-1.061.435zM.75 17.773h2.357a2.951 2.951 0 0 0 1.06 1.605 3.006 3.006 0 0 0 3.666 0 2.951 2.951 0 0 0 1.06-1.605h8.357c.199 0 .39-.078.53-.217a.738.738 0 0 0 0-1.05.754.754 0 0 0-.53-.217H8.893a2.951 2.951 0 0 0-1.06-1.604 3.005 3.005 0 0 0-3.666 0 2.951 2.951 0 0 0-1.06 1.604H.75a.754.754 0 0 0-.53.217.738.738 0 0 0 0 1.05c.14.14.331.217.53.217zM6 15.547c.297 0 .587.087.833.25a1.47 1.47 0 0 1 .227 2.284 1.515 1.515 0 0 1-1.635.322 1.497 1.497 0 0 1-.672-.547 1.473 1.473 0 0 1 .186-1.874A1.508 1.508 0 0 1 6 15.547z"></path>
    </symbol>
    <symbol viewBox="0 0 19 18" stroke="none" xmlns="http://www.w3.org/2000/svg" id="icon15">
      <path fill-rule="evenodd" clip-rule="evenodd" d="M12.257 10.5h-.614l-.213-.206a4.768 4.768 0 0 0 1.212-3.169c0-2.692-2.25-4.875-5.024-4.875-2.775 0-5.024 2.183-5.024 4.875C2.594 9.818 4.844 12 7.618 12a5.091 5.091 0 0 0 3.266-1.175l.213.206v.594l3.863 3.743 1.152-1.118-3.855-3.75zm-4.639 0c-1.921 0-3.478-1.51-3.478-3.375 0-1.864 1.557-3.375 3.478-3.375 1.92 0 3.478 1.511 3.478 3.375S9.54 10.5 7.618 10.5z"></path>
    </symbol>
  <symbol viewBox="0 0 19 13" stroke="none" xmlns="http://www.w3.org/2000/svg" id="icon16">
    <path fill-rule="evenodd" clip-rule="evenodd" d="M.219 12.777h18v-2h-18v2zm0-5h18v-2h-18v2zm0-7v2h18v-2h-18z"></path>
  </symbol>
  <symbol viewBox="0 0 15 15" stroke="none" xmlns="http://www.w3.org/2000/svg" id="icon17">
    <path fill-rule="evenodd" clip-rule="evenodd" d="M14.115 1.49L12.689.118 7.193 5.819 1.491.323.117 1.748 5.82 7.244.323 12.947l1.426 1.373 5.496-5.702 5.702 5.496 1.374-1.425-5.702-5.496 5.496-5.702z"></path>
  </symbol>
  <symbol xmlns="http://www.w3.org/2000/svg" stroke="none" viewBox="0 0 8.998 5.613" id="icon18">
    <path d="M4.416 0L0 4.582l1.07 1.03L4.454 2.1l3.513 3.386 1.03-1.07z" clip-rule="evenodd" fill-rule="evenodd"></path>
  </symbol>
  <symbol viewBox="0 0 16 4" stroke="none" xmlns="http://www.w3.org/2000/svg" id="icon19">
    <path fill-rule="evenodd" clip-rule="evenodd" d="M12 2c0 1.1.9 2 2 2s2-.9 2-2-.9-2-2-2-2 .9-2 2zm-2 0c0-1.1-.9-2-2-2S6 .9 6 2s.9 2 2 2 2-.9 2-2zM4 2c0-1.1-.9-2-2-2S0 .9 0 2s.9 2 2 2 2-.9 2-2z"></path>
  </symbol>
  <symbol viewBox="0 0 83 63" stroke="none" xmlns="http://www.w3.org/2000/svg" id="icon20">
    <path fill-rule="evenodd" clip-rule="evenodd" d="M26.41 49.836L6.601 30.09 0 36.672 26.41 63 83 6.582 76.398 0 26.409 49.836z"></path>
  </symbol>
  <symbol viewBox="0 0 10 5" stroke="none" xmlns="http://www.w3.org/2000/svg" id="icon21">
    <path fill-rule="evenodd" clip-rule="evenodd" d="M0 0l5 5 5-5H0z"></path>
  </symbol>
  <symbol viewBox="0 0 41 29" stroke="none" xmlns="http://www.w3.org/2000/svg" id="icon22">
    <path fill-rule="evenodd" clip-rule="evenodd" d="M32.583 28.697l1.582-4.542 2.336.445 1.146-6.017h2.93V0H6.67L4.617 5.898.56 17.55l32.022 11.148zM4.378 17.447L6.67 5.42v12.464l-2.292-.436zm31.316 5.967l-25.356-4.831h6.055L32.755 21.7c.292-1.535.892-1.943 2.427-1.65l.279-1.467h1.154l-.921 4.83zm-13.878-4.831H34.43l-.063.33a2.605 2.605 0 0 0-2.369 1.61l-10.18-1.94zM7.684 1.015h31.88v16.552H7.683V1.015zm-5.832 15.91l3.52-10.11-2.025 10.63-1.495-.52zm30.107 10.48L8.67 19.299l7.609 1.45 13.022 4.532c.513-1.475 1.167-1.79 2.641-1.277l.089-.254 1.126.214-1.2 3.443zM23.1 22.048l6.307 1.202a2.567 2.567 0 0 0-.683.756L23.1 22.047zM9.757 2.425a.503.503 0 1 0-1.006.002.503.503 0 0 0 1.006-.002zm28.675 1.798c-1.563 0-2.076-.514-2.076-2.076H10.894c0 1.562-.513 2.076-2.076 2.076v10.136c1.563 0 2.076.513 2.076 2.075h25.462c0-1.562.513-2.075 2.076-2.075V4.223zm-.439-2.3a.503.503 0 1 1 0 1.006.503.503 0 0 1 0-1.006zM9.757 16.156a.503.503 0 1 0-1.006.002.503.503 0 0 0 1.006-.002zm28.236-.502a.503.503 0 1 1 0 1.006.503.503 0 0 1 0-1.006zm-6.886 9.427a.503.503 0 1 1-.332.95.503.503 0 0 1 .332-.95zm3.89-3.255a.503.503 0 1 0-.95-.33.503.503 0 0 0 .95.33zM20.51 9.266v.983h.871v.749h-.871v.982h.871v1.473h1.142V11.98h3.855v-.982h-3.855v-.75h.97c1.113 0 1.964-.294 2.554-.883.507-.508.76-1.146.76-1.915 0-.892-.343-1.576-1.03-2.05-.508-.36-1.253-.54-2.235-.54h-2.16v4.407h-.872zm4.493-3.093c.41.262.614.7.614 1.313 0 .524-.164.95-.491 1.277a1.468 1.468 0 0 1-.7.405c-.278.074-.655.11-1.13.11h-.773V5.842h.945c.688 0 1.2.11 1.535.332z"></path>
  </symbol>
  <symbol xmlns="http://www.w3.org/2000/svg" viewBox="0 0 10.504 12.078" stroke="none" id="icon23">
    <path d="M6.98.805c.453.46.732 1.15.732 1.879v1.38c0 .729-.279 1.419-.733 1.879-.942 1.074-2.477 1.074-3.454 0-.42-.46-.698-1.15-.698-1.879v-1.38c0-.729.279-1.419.698-1.879.977-1.073 2.512-1.073 3.454 0zm-3.91 5.33c.349-.192.593.345.28.537 0 0-1.467.881-1.99 1.073-.523.23-.733.767-.768 1.342-.035.614-.035.959-.035 1.15 1.536 1.534 7.852 1.534 9.388 0 0-.191 0-.536-.035-1.15-.035-.575-.244-1.112-.768-1.342-.488-.192-1.954-1.073-1.954-1.073-.35-.192-.07-.729.244-.537 0 0 1.43.805 1.92 1.035.732.307 1.046 1.035 1.116 1.879.035.92.035 1.303.035 1.303a.438.438 0 0 1-.07.23c-1.605 1.994-8.759 1.994-10.364 0a.438.438 0 0 1-.07-.23S0 9.97.07 9.05c.035-.844.384-1.572 1.117-1.879A88.805 88.805 0 0 0 3.07 6.135zm.872-4.87a2.256 2.256 0 0 0-.523 1.419v1.38c0 .537.21 1.074.523 1.419.733.805 1.885.805 2.618 0 .314-.345.523-.882.523-1.419v-1.38c0-.537-.21-1.035-.523-1.419-.733-.805-1.885-.805-2.618 0z"></path>
  </symbol>
  <symbol xmlns="http://www.w3.org/2000/svg" viewBox="0 0 13 12.441" stroke="none" id="icon24">
    <path d="M.289 0C.129 0 0 .143 0 .319c0 .176.13.319.289.319h1.829c.738 2.016 1.463 4.036 2.194 6.056L3.635 8.49c-.075.193.076.443.266.443h7.224c.153.003.293-.15.293-.319 0-.168-.14-.321-.293-.319h-6.79l.487-1.296 7.048-.623c.12-.01.23-.114.257-.244l.867-4.147c.038-.185-.108-.388-.28-.389h-9.63L2.578.199A.298.298 0 0 0 2.312 0zm3.025 2.233h9.039l-.74 3.53-6.8.597zM5.346 9.57c-.715 0-1.3.647-1.3 1.436 0 .789.585 1.435 1.3 1.435.714 0 1.3-.646 1.3-1.435 0-.79-.586-1.436-1.3-1.436zm4.334 0c-.715 0-1.3.647-1.3 1.436 0 .789.585 1.435 1.3 1.435.715 0 1.3-.646 1.3-1.435 0-.79-.585-1.436-1.3-1.436zm-4.334.638c.402 0 .722.354.722.798 0 .444-.32.797-.722.797-.403 0-.723-.353-.723-.797 0-.444.32-.798.723-.798zm4.334 0c.402 0 .723.354.723.798 0 .444-.32.797-.723.797-.402 0-.722-.353-.722-.797 0-.444.32-.798.722-.798z"></path>
  </symbol>
  <symbol viewBox="0 0 10 17" stroke="none" xmlns="http://www.w3.org/2000/svg" id="icon25">
    <path d="M8.935.037c.264 0 .547.09.754.286a.956.956 0 0 1 0 1.411L2.545 8.522l7.144 6.77a.956.956 0 0 1 0 1.411 1.107 1.107 0 0 1-1.49.018L.303 9.236A.957.957 0 0 1 0 8.522c0-.268.113-.518.302-.715L8.2.323c.207-.196.471-.286.735-.286z"></path>
  </symbol>
  <symbol viewBox="0 0 26 32" stroke="none" xmlns="http://www.w3.org/2000/svg" id="icon26">
    <path fill-rule="evenodd" clip-rule="evenodd" d="M13.003 0c9.629 0 15.867 9.959 11.663 18.324C22.632 22.573 15.851 28.946 13.003 32c-2.983-3.32-9.357-9.162-11.527-13.544C-3 10.224 3.239 0 13.003 0zm0 4.78c4.476 0 8.137 3.585 8.137 7.967s-3.662 7.967-8.137 7.967c-4.475 0-8.137-3.585-8.137-7.967S8.528 4.78 13.003 4.78z"></path>
  </symbol>
  <symbol viewBox="0 0 30 27" stroke="none" xmlns="http://www.w3.org/2000/svg" id="icon27">
    <path fill-rule="evenodd" clip-rule="evenodd" d="M1.63 8.132L23.532 3.18l-.303-1.335a.711.711 0 0 0-.847-.535L1.856 5.92a.708.708 0 0 0-.536.845c.104.453.205.914.31 1.368zM1.448 4.71L22.234.045c.991-.222 1.98.4 2.202 1.389l2.178 9.6h-1.301l-.988-4.348L2.422 11.64l1.356 5.962.121.528c.048.212.26.35.476.3l.162-.037v1.27l-.024.008a1.539 1.539 0 0 1-1.83-1.154L.047 6.908a1.786 1.786 0 0 1 .24-1.388c.27-.43.664-.7 1.16-.81v-.001zm5.395 6.671a1.844 1.844 0 0 0-1.84 1.84v11.944a1.84 1.84 0 0 0 1.84 1.836h21.313A1.846 1.846 0 0 0 30 25.164V13.22c0-1.012-.83-1.84-1.845-1.84H6.843zm20.864 5.347v-2.431a.28.28 0 0 0-.283-.283H21.97a.285.285 0 0 0-.283.283v2.431c0 .155.128.282.283.282h5.453a.285.285 0 0 0 .283-.282zm-4.02 7.371a.285.285 0 0 1-.286-.282v-.565c0-.155.128-.283.286-.283h3.733c.155 0 .284.128.284.283v.564a.285.285 0 0 1-.284.283h-3.733zm-5.21 0a.285.285 0 0 1-.283-.282v-.562c0-.158.128-.283.283-.283h3.737c.155 0 .283.128.283.283v.561a.285.285 0 0 1-.283.283h-3.737zm-5.206 0a.285.285 0 0 1-.284-.282v-.562c0-.158.129-.283.284-.283h3.736c.155 0 .283.128.283.283v.561a.285.285 0 0 1-.283.283h-3.736zm-5.207 0a.285.285 0 0 1-.283-.282v-.562c0-.158.128-.283.283-.283H11.8c.155 0 .284.128.284.283v.561a.285.285 0 0 1-.284.283H8.064z"></path>
  </symbol>
  <symbol viewBox="0 0 20 20" stroke="none" xmlns="http://www.w3.org/2000/svg" id="icon28">
    <path d="M10 0C4.485 0 0 4.485 0 10s4.485 10 10 10 10-4.485 10-10S15.515 0 10 0zm0 1.364A8.626 8.626 0 0 1 18.636 10 8.626 8.626 0 0 1 10 18.636 8.626 8.626 0 0 1 1.364 10 8.626 8.626 0 0 1 10 1.364zm0 1.363a.682.682 0 0 0-.682.682V10a.68.68 0 0 0 .341.59l5.313 3.068a.68.68 0 1 0 .681-1.18L10.682 9.61v-6.2A.682.682 0 0 0 10 2.727z"></path>
  </symbol>
  <symbol viewBox="0 0 62 59" fill="none" xmlns="http://www.w3.org/2000/svg" id="icon29">
    <path d="M4.274 30.5h53.452a3.5 3.5 0 0 1 3.5 3.5v1.722H.774V34a3.5 3.5 0 0 1 3.5-3.5z"></path>
    <path d="M5.02 35.685h51.96c-.264 8.084-6.9 14.556-15.047 14.556H20.066c-8.147 0-14.783-6.472-15.047-14.556zm26.501-24.852h11.672a5.723 5.723 0 0 0-5.7-5.222h-.27a5.723 5.723 0 0 0-5.701 5.222z"></path>
    <path d="M51.13 30V7.32A6.357 6.357 0 0 0 44.775.963h-1.69a4.667 4.667 0 0 0-4.667 4.667M31.5 13.408v13.481m5.298-13.481v13.481m6.357-13.481v13.481"></path>
    <path transform="matrix(-.45492 .89053 -.8982 -.43957 15.107 49.704)" d="M0-.5h9.316"></path>
    <path transform="matrix(-.455 -.8905 .89817 -.43965 50.072 58)" d="M0-.5h9.316"></path>
  </symbol>
  <symbol viewBox="0 0 64 55" fill="none" xmlns="http://www.w3.org/2000/svg" id="icon30">
    <path d="M1.393.537h14.804v17.667H1.393z"></path>
    <path d="M16.143.537H32v17.667H16.143z"></path>
    <path d="M31.946.537h15.857v17.667H31.946zm-30.553 28h61.161V54.5H1.393z"></path>
    <path d="M1.393 28.537h20.071V54.5H1.393zm41.089 0h20.071V54.5H42.482z"></path>
    <path d="M21.411 28.537h21.125v6.259H21.411zm4.214 10.37h12.696v6.259H25.625zM47.75.537h14.804v17.667H47.75z"></path>
    <path transform="matrix(0 1 -.99998 -.00594 12.482 7.296)" d="M0-.5h4.148"></path>
    <path d="M27.732 7.296v4.148m7.375-4.148v4.148m15.804-4.148v4.148"></path>
  </symbol>
  <symbol viewBox="0 0 58 58" fill="none" xmlns="http://www.w3.org/2000/svg" id="icon31">
    <path d="M.525.815h56.922v56.353H.525zM57.42 9.157L7.375 57.145M57.42 23.762L23.179 57.145M57.42 39.932L39.509 57.145M49.691.645L.35 49.501M33.627.669L.375 33.593M17.537.669L.374 17.662m11.216 4.536L3.941 14.49m24.693 7.421l-8.581-8.496m30.012 3.199l-7.922-7.978M43.65 36.78l-7.508-7.434M16.33 49.321l-7.9-7.824m35.2 12.29l-8.335-8.117"></path>
  </symbol>
  <symbol viewBox="0 0 58 54" fill="none" xmlns="http://www.w3.org/2000/svg" id="icon32">
    <path d="M.893.877H12.28v10.615H.893zm0 13.938H12.28V25.43H.893zM16.229.877h10.797v10.615H16.229zm0 13.938h10.797V25.43H16.229zM31.564.877h10.797v10.615H31.564zm0 13.938h10.797V25.43H31.564zM46.31.877h10.797v10.615H46.31zm0 13.938h10.797V25.43H46.31zM.893 28.753H12.28v10.615H.893zm0 13.938H12.28v10.615H.893zm15.336-13.938h10.797v10.615H16.229zm0 13.938h10.797v10.615H16.229zm15.335-13.938h10.797v10.615H31.564zm0 13.938h10.797v10.615H31.564zM46.31 28.753h10.797v10.615H46.31zm0 13.938h10.797v10.615H46.31z"></path>
  </symbol>
  <symbol viewBox="0 0 48 56" fill="none" xmlns="http://www.w3.org/2000/svg" id="icon33">
    <path d="M47.116 54.58H1.32V26.648l6.061-17.29V1.376h34.346v7.98l5.388 17.291V54.58z"></path>
    <rect x="11.591" y="28.478" width="27.087" height="17.742" rx="2.5"></rect>
    <path d="M7.427 8.736h21.982M17.197 33.524h15.265m-15.265 4.233h15.265m-15.265 4.232h15.265"></path>
  </symbol>
  <symbol viewBox="0 0 59 60" fill="none" xmlns="http://www.w3.org/2000/svg" id="icon34">
    <path d="M1.393 28.935v29.732h56.684V28.935L30 1.29 1.393 28.935z"></path>
    <path d="M24.143 15.352h9.595v10.475h-9.595zM9.309 35.173h21.25v14.648H9.309zm27.548 0h10.655v23.515H36.857V35.173z"></path>
  </symbol>
</svg>