<?xml version="1.0" encoding="UTF-8" standalone="no"?>
<svg
   xmlns:dc="http://purl.org/dc/elements/1.1/"
   xmlns:cc="http://creativecommons.org/ns#"
   xmlns:rdf="http://www.w3.org/1999/02/22-rdf-syntax-ns#"
   xmlns:svg="http://www.w3.org/2000/svg"
   xmlns="http://www.w3.org/2000/svg"
   xmlns:sodipodi="http://sodipodi.sourceforge.net/DTD/sodipodi-0.dtd"
   xmlns:inkscape="http://www.inkscape.org/namespaces/inkscape"
   viewBox="0 0 13.518 13.118"
   id="icon15"
   width="13.518"
   height="13.118"
   version="1.1"
   sodipodi:docname="s.svg"
   style="stroke:none"
   inkscape:version="0.92.4 (5da689c313, 2019-01-14)">
  <metadata
     id="metadata26">
    <rdf:RDF>
      <cc:Work
         rdf:about="">
        <dc:format>image/svg+xml</dc:format>
        <dc:type
           rdf:resource="http://purl.org/dc/dcmitype/StillImage" />
      </cc:Work>
    </rdf:RDF>
  </metadata>
  <defs
     id="defs24" />
  <sodipodi:namedview
     pagecolor="#ffffff"
     bordercolor="#666666"
     borderopacity="1"
     objecttolerance="10"
     gridtolerance="10"
     guidetolerance="10"
     inkscape:pageopacity="0"
     inkscape:pageshadow="2"
     inkscape:window-width="1366"
     inkscape:window-height="705"
     id="namedview22"
     showgrid="false"
     inkscape:zoom="29.777778"
     inkscape:cx="6.906"
     inkscape:cy="6.368"
     inkscape:window-x="-8"
     inkscape:window-y="-8"
     inkscape:window-maximized="1"
     inkscape:current-layer="icon15" />
  <path
     d="M 9.663,8.25 H 9.049 L 8.836,8.044 A 4.768,4.768 0 0 0 10.048,4.875 C 10.048,2.183 7.798,0 5.024,0 2.249,0 0,2.183 0,4.875 0,7.568 2.25,9.75 5.024,9.75 A 5.091,5.091 0 0 0 8.29,8.575 L 8.503,8.781 V 9.375 L 12.366,13.118 13.518,12 Z m -4.639,0 C 3.103,8.25 1.546,6.74 1.546,4.875 1.546,3.011 3.103,1.5 5.024,1.5 c 1.92,0 3.478,1.511 3.478,3.375 0,1.864 -1.556,3.375 -3.478,3.375 z"
     id="path19"
     inkscape:connector-curvature="0"
     style="clip-rule:evenodd;fill-rule:evenodd" />
</svg>
