<?xml version="1.0" encoding="utf-8"?>
<!-- Generator: Adobe Illustrator 24.0.3, SVG Export Plug-In . SVG Version: 6.00 Build 0)  -->
<svg version="1.1" id="Слой_1" xmlns="http://www.w3.org/2000/svg" xmlns:xlink="http://www.w3.org/1999/xlink" x="0px" y="0px"
	 viewBox="0 0 59 58.5" style="enable-background:new 0 0 59 58.5;" xml:space="preserve">
<style type="text/css">
	.st0{fill-rule:evenodd;clip-rule:evenodd;fill:#616161;}
</style>
<path class="st0" d="M59,0H0v13.9h45v44.6h14V0z M1,12.9V1h57v56.5H46v-4.6h4v-1h-4v-4.6h3.5v-1H46v-4.4h5v-1h-5v-4.9h6.5v-1H46
	v-4.4h4v-1h-4v-4.9h3.5v-1H46v-4.4h5.5v-1H46v-5.4h-5V9.1h-1v3.8h-4.5v-2.7h-1v2.7H30V8h-1v4.9h-5V6.4h-1v6.5h-4.5V9.1h-1v3.8h-5
	V9.6h-1v3.3H7V8H6v4.9H1z M2.4,19.7h12L34,39.2l0.7-0.7L15.8,19.7h23.5v36.9L2.4,19.7z M1.8,20.6l36.4,36.4H25.4L8.7,40.3L8,41
	l16,15.9H1.8V20.6z M0.8,19.6v-0.9h39.4v39.2H25H0.8V19.6z M53.5,8.5c0,1.7-1.3,3-3,3s-3-1.3-3-3c0-1.7,1.3-3,3-3S53.5,6.8,53.5,8.5
	z M54.5,8.5c0,2.2-1.8,4-4,4s-4-1.8-4-4c0-2.2,1.8-4,4-4S54.5,6.3,54.5,8.5z"/>
</svg>
